<svg xmlns="http://www.w3.org/2000/svg" aria-hidden="true" style="width: 0; height: 0; position: absolute;"><symbol id="icon-Archetypal" viewBox="0 0 90 88"><path d="M8.696 70.734a2.5 2.5 0 0 0 4.079-2.891zM77.2 67.878a2.5 2.5 0 1 0 4.076 2.896zM26 55.534a2.5 2.5 0 0 0 0 5zm38 5a2.5 2.5 0 0 0 0-5zM26 45.5a2.5 2.5 0 0 0 0 5zM29.2 85a2.5 2.5 0 0 0 5 0zM64 50.5a2.5 2.5 0 0 0 0-5zM55.167 85a2.5 2.5 0 0 0 5 0zM33.789 41.5a2.5 2.5 0 0 0 0-5zM18 39v-2.5h-2.5V39zm-2.5 38a2.5 2.5 0 0 0 5 0zm40.08-40.5a2.5 2.5 0 0 0 0 5zM72 39h2.5v-2.5H72zm-2.5 38a2.5 2.5 0 0 0 5 0zm-56.725-9.157a39.5 39.5 0 0 1-7.18-20.094l-4.987.348a44.5 44.5 0 0 0 8.088 22.637zm-7.18-20.094a39.5 39.5 0 0 1 4.32-20.897l-4.44-2.297A44.5 44.5 0 0 0 .608 48.097zm4.32-20.897a39.5 39.5 0 0 1 14.559-15.6L21.875 6.98a44.5 44.5 0 0 0-16.4 17.575zm14.559-15.6A39.5 39.5 0 0 1 45.022 5.5l.003-5a44.5 44.5 0 0 0-23.15 6.48zM45.022 5.5a39.5 39.5 0 0 1 20.542 5.775l2.603-4.27A44.5 44.5 0 0 0 45.025.5zm20.542 5.775a39.5 39.5 0 0 1 14.54 15.616l4.444-2.292A44.5 44.5 0 0 0 68.167 7.006zm14.54 15.616a39.5 39.5 0 0 1 4.297 20.901l4.988.354a44.5 44.5 0 0 0-4.84-23.547zm4.297 20.901A39.5 39.5 0 0 1 77.2 67.878l4.076 2.896a44.5 44.5 0 0 0 8.113-22.628zM52.5 27a7.5 7.5 0 0 1-7.5 7.5v5c6.904 0 12.5-5.596 12.5-12.5zM45 34.5a7.5 7.5 0 0 1-7.5-7.5h-5c0 6.904 5.596 12.5 12.5 12.5zM37.5 27a7.5 7.5 0 0 1 7.5-7.5v-5c-6.904 0-12.5 5.596-12.5 12.5zm7.5-7.5a7.5 7.5 0 0 1 7.5 7.5h5c0-6.904-5.596-12.5-12.5-12.5zm-9.424 5H7v5h28.576zm18.24 4H83v-5H53.816zM26 60.534h5.7v-5H26zm5.7 0h25.967v-5H31.7zm25.967 0H64v-5h-6.333zM26 50.5h5.7v-5H26zm3.2-2.5v10.034h5V48zm0 10.034V85h5V58.034zm2.5-7.534h25.967v-5H31.7zm25.967 0H64v-5h-6.333zm-2.5-2.5v10.034h5V48zm0 10.034V85h5V58.034zM33.789 36.5H18v5H33.79zM15.5 39v38h5V39zm40.08 2.5H72v-5H55.58zM69.5 39v38h5V39z"></path></symbol><symbol id="icon-book-open" viewBox="0 0 24 24"><path d="M2 3h6a4 4 0 0 1 4 4v14a3 3 0 0 0-3-3H2zM22 3h-6a4 4 0 0 0-4 4v14a3 3 0 0 1 3-3h7z"></path></symbol><symbol id="icon-coffee" viewBox="0 0 24 24"><path d="M18 8h1a4 4 0 0 1 0 8h-1M2 8h16v9a4 4 0 0 1-4 4H6a4 4 0 0 1-4-4zM6 1v3M10 1v3M14 1v3"></path></symbol><symbol id="icon-database" viewBox="0 0 24 24"><ellipse cx="12" cy="5" rx="9" ry="3"></ellipse><path d="M21 12c0 1.66-4 3-9 3s-9-1.34-9-3"></path><path d="M3 5v14c0 1.66 4 3 9 3s9-1.34 9-3V5"></path></symbol><symbol id="icon-external-link" viewBox="0 0 24 24"><path d="M18 13v6a2 2 0 0 1-2 2H5a2 2 0 0 1-2-2V8a2 2 0 0 1 2-2h6M15 3h6v6M10 14 21 3"></path></symbol><symbol id="icon-github" viewBox="0 0 24 24"><path d="M9 19c-5 1.5-5-2.5-7-3m14 6v-3.87a3.37 3.37 0 0 0-.94-2.61c3.14-.35 6.44-1.54 6.44-7A5.44 5.44 0 0 0 20 4.77 5.07 5.07 0 0 0 19.91 1S18.73.65 16 2.48a13.4 13.4 0 0 0-7 0C6.27.65 5.09 1 5.09 1A5.07 5.07 0 0 0 5 4.77a5.44 5.44 0 0 0-1.5 3.78c0 5.42 3.3 6.61 6.44 7A3.37 3.37 0 0 0 9 18.13V22"></path></symbol><symbol id="icon-server" viewBox="0 0 24 24"><rect width="20" height="8" x="2" y="2" rx="2" ry="2"></rect><rect width="20" height="8" x="2" y="14" rx="2" ry="2"></rect><path d="M6 6h.01M6 18h.01"></path></symbol></svg>